<mxfile host="app.diagrams.net" modified="2020-09-01T06:03:10.614Z" agent="5.0 (Windows NT 10.0; Win64; x64) AppleWebKit/537.36 (KHTML, like Gecko) Chrome/85.0.4183.83 Safari/537.36" etag="F9-Hs5HtwFUPhpBNjipy" version="13.6.5" type="github" pages="2">
  <diagram id="7ViqcPhimiLQQkwgb_c-" name="Preview click">
    <mxGraphModel dx="942" dy="1683" grid="1" gridSize="10" guides="1" tooltips="1" connect="1" arrows="1" fold="1" page="1" pageScale="1" pageWidth="850" pageHeight="1100" math="0" shadow="0">
      <root>
        <mxCell id="lbTf028gKwogfkDrePLs-0" />
        <mxCell id="lbTf028gKwogfkDrePLs-1" parent="lbTf028gKwogfkDrePLs-0" />
        <mxCell id="lbTf028gKwogfkDrePLs-3" value="&lt;h1 style=&quot;line-height: 120% ; font-size: 20px&quot;&gt;&lt;font face=&quot;Lucida Console&quot;&gt;Preview click&lt;/font&gt;&lt;/h1&gt;" style="text;html=1;strokeColor=none;fillColor=none;align=center;verticalAlign=middle;whiteSpace=wrap;rounded=0;" vertex="1" parent="lbTf028gKwogfkDrePLs-1">
          <mxGeometry y="-1090" width="850" height="30" as="geometry" />
        </mxCell>
        <mxCell id="lbTf028gKwogfkDrePLs-8" style="edgeStyle=orthogonalEdgeStyle;rounded=0;orthogonalLoop=1;jettySize=auto;html=1;exitX=0.5;exitY=1;exitDx=0;exitDy=0;entryX=0.5;entryY=0;entryDx=0;entryDy=0;" edge="1" parent="lbTf028gKwogfkDrePLs-1" source="lbTf028gKwogfkDrePLs-5" target="lbTf028gKwogfkDrePLs-6">
          <mxGeometry relative="1" as="geometry" />
        </mxCell>
        <mxCell id="lbTf028gKwogfkDrePLs-5" value="&lt;a href=&quot;data:page/id,HXErnB2rk2bTtTG7fTnv&quot;&gt;Save current image&lt;/a&gt;" style="rounded=0;whiteSpace=wrap;html=1;" vertex="1" parent="lbTf028gKwogfkDrePLs-1">
          <mxGeometry x="360" y="-930" width="120" height="60" as="geometry" />
        </mxCell>
        <mxCell id="lbTf028gKwogfkDrePLs-13" style="edgeStyle=orthogonalEdgeStyle;rounded=0;orthogonalLoop=1;jettySize=auto;html=1;exitX=0.5;exitY=1;exitDx=0;exitDy=0;entryX=0.5;entryY=0;entryDx=0;entryDy=0;" edge="1" parent="lbTf028gKwogfkDrePLs-1" source="lbTf028gKwogfkDrePLs-6" target="lbTf028gKwogfkDrePLs-9">
          <mxGeometry relative="1" as="geometry" />
        </mxCell>
        <mxCell id="lbTf028gKwogfkDrePLs-6" value="Load image to current frame with imageId from preview object" style="rounded=0;whiteSpace=wrap;html=1;" vertex="1" parent="lbTf028gKwogfkDrePLs-1">
          <mxGeometry x="360" y="-840" width="120" height="60" as="geometry" />
        </mxCell>
        <mxCell id="lbTf028gKwogfkDrePLs-14" style="edgeStyle=orthogonalEdgeStyle;rounded=0;orthogonalLoop=1;jettySize=auto;html=1;exitX=0.5;exitY=1;exitDx=0;exitDy=0;entryX=0.5;entryY=0;entryDx=0;entryDy=0;" edge="1" parent="lbTf028gKwogfkDrePLs-1" source="lbTf028gKwogfkDrePLs-9" target="lbTf028gKwogfkDrePLs-10">
          <mxGeometry relative="1" as="geometry" />
        </mxCell>
        <mxCell id="lbTf028gKwogfkDrePLs-9" value="Set histogram data for image in current frame" style="rounded=0;whiteSpace=wrap;html=1;" vertex="1" parent="lbTf028gKwogfkDrePLs-1">
          <mxGeometry x="360" y="-750" width="120" height="60" as="geometry" />
        </mxCell>
        <mxCell id="lbTf028gKwogfkDrePLs-10" value="Set image info data for image in current frame" style="rounded=0;whiteSpace=wrap;html=1;" vertex="1" parent="lbTf028gKwogfkDrePLs-1">
          <mxGeometry x="360" y="-660" width="120" height="60" as="geometry" />
        </mxCell>
        <mxCell id="lbTf028gKwogfkDrePLs-12" style="edgeStyle=orthogonalEdgeStyle;rounded=0;orthogonalLoop=1;jettySize=auto;html=1;exitX=0.5;exitY=1;exitDx=0;exitDy=0;entryX=0.5;entryY=0;entryDx=0;entryDy=0;" edge="1" parent="lbTf028gKwogfkDrePLs-1" source="lbTf028gKwogfkDrePLs-11" target="lbTf028gKwogfkDrePLs-5">
          <mxGeometry relative="1" as="geometry" />
        </mxCell>
        <mxCell id="lbTf028gKwogfkDrePLs-11" value="&lt;span&gt;Preview click&lt;/span&gt;" style="ellipse;whiteSpace=wrap;html=1;" vertex="1" parent="lbTf028gKwogfkDrePLs-1">
          <mxGeometry x="360" y="-1040" width="120" height="80" as="geometry" />
        </mxCell>
      </root>
    </mxGraphModel>
  </diagram>
  <diagram id="HXErnB2rk2bTtTG7fTnv" name="Save  Image">
    <mxGraphModel dx="942" dy="583" grid="1" gridSize="10" guides="1" tooltips="1" connect="1" arrows="1" fold="1" page="1" pageScale="1" pageWidth="850" pageHeight="1100" math="0" shadow="0">
      <root>
        <mxCell id="-xbel0-UNr-64f_lWjUL-0" />
        <mxCell id="-xbel0-UNr-64f_lWjUL-1" parent="-xbel0-UNr-64f_lWjUL-0" />
        <mxCell id="-xbel0-UNr-64f_lWjUL-2" value="&lt;font style=&quot;font-size: 20px&quot; face=&quot;Lucida Console&quot;&gt;Save current image&lt;/font&gt;" style="text;html=1;strokeColor=none;fillColor=none;align=center;verticalAlign=middle;whiteSpace=wrap;rounded=0;" vertex="1" parent="-xbel0-UNr-64f_lWjUL-1">
          <mxGeometry width="850" height="40" as="geometry" />
        </mxCell>
        <mxCell id="Hw0qtL5_9q6f233JJTyw-3" style="edgeStyle=orthogonalEdgeStyle;rounded=0;orthogonalLoop=1;jettySize=auto;html=1;exitX=0.5;exitY=1;exitDx=0;exitDy=0;entryX=0.5;entryY=0;entryDx=0;entryDy=0;" edge="1" parent="-xbel0-UNr-64f_lWjUL-1" source="Hw0qtL5_9q6f233JJTyw-0" target="Hw0qtL5_9q6f233JJTyw-1">
          <mxGeometry relative="1" as="geometry" />
        </mxCell>
        <mxCell id="Hw0qtL5_9q6f233JJTyw-0" value="Start" style="ellipse;whiteSpace=wrap;html=1;" vertex="1" parent="-xbel0-UNr-64f_lWjUL-1">
          <mxGeometry x="360" y="60" width="120" height="80" as="geometry" />
        </mxCell>
        <mxCell id="Hw0qtL5_9q6f233JJTyw-4" style="edgeStyle=orthogonalEdgeStyle;rounded=0;orthogonalLoop=1;jettySize=auto;html=1;exitX=0.5;exitY=1;exitDx=0;exitDy=0;entryX=0.5;entryY=0;entryDx=0;entryDy=0;" edge="1" parent="-xbel0-UNr-64f_lWjUL-1" source="Hw0qtL5_9q6f233JJTyw-1" target="Hw0qtL5_9q6f233JJTyw-2">
          <mxGeometry relative="1" as="geometry" />
        </mxCell>
        <mxCell id="Hw0qtL5_9q6f233JJTyw-1" value="Prepare layout data for saving" style="rounded=0;whiteSpace=wrap;html=1;" vertex="1" parent="-xbel0-UNr-64f_lWjUL-1">
          <mxGeometry x="360" y="170" width="120" height="60" as="geometry" />
        </mxCell>
        <mxCell id="Hw0qtL5_9q6f233JJTyw-2" value="Call SaveImage function from API" style="rounded=0;whiteSpace=wrap;html=1;" vertex="1" parent="-xbel0-UNr-64f_lWjUL-1">
          <mxGeometry x="360" y="260" width="120" height="60" as="geometry" />
        </mxCell>
      </root>
    </mxGraphModel>
  </diagram>
</mxfile>
